####
#
# OBJ File Generated by Meshlab
#
####
# Object hand_base.obj
#
# Vertices: 40
# Faces: 76
#
####
vn -1.570796 -1.570796 -1.570795
v -0.047000 -0.031500 0.071000
vn -2.846666 1.179168 -3.534298
v -0.029102 0.012054 0.071000
vn -3.081223 0.000001 -3.534304
v -0.031500 -0.000000 0.071000
vn -3.081228 0.000001 -2.748892
v -0.031500 -0.000000 0.000000
vn -2.846665 -1.179169 -3.534297
v -0.029102 -0.012054 0.071000
vn -2.846682 -1.179136 -2.748892
v -0.029102 -0.012055 0.000000
vn -1.570796 1.570796 -1.570797
v -0.047000 0.031500 0.071000
vn -2.178697 2.178815 -3.534290
v -0.022273 0.022274 0.071000
vn -2.178758 2.178756 -2.748892
v -0.022274 0.022274 0.000000
vn -2.846683 1.179135 -2.748890
v -0.029102 0.012055 0.000000
vn -1.179058 2.846721 -3.534271
v -0.012053 0.029103 0.071000
vn -1.179134 2.846684 -2.748894
v -0.012055 0.029102 0.000000
vn -0.000003 6.222829 -0.392670
v -0.000000 0.031500 0.071000
vn 1.570796 1.570797 1.570796
v 0.047000 0.031500 0.155600
vn 1.570796 1.570796 -1.570795
v 0.047000 0.031500 0.071000
vn 1.179061 2.846721 -3.534267
v 0.012053 0.029103 0.071000
vn -0.000003 3.081228 -2.748898
v -0.000000 0.031500 0.000000
vn -1.570796 -1.570797 1.570796
v -0.047000 -0.031500 0.155600
vn -1.570796 1.570796 1.570796
v -0.047000 0.031500 0.155600
vn -1.179061 -2.846721 -3.534267
v -0.012053 -0.029103 0.071000
vn 0.000003 -6.222829 -0.392670
v -0.000000 -0.031500 0.071000
vn -2.178697 -2.178815 -3.534290
v -0.022273 -0.022274 0.071000
vn 0.000003 -3.081228 -2.748898
v 0.000000 -0.031500 0.000000
vn 1.570796 -1.570796 -1.570797
v 0.047000 -0.031500 0.071000
vn 1.179058 -2.846721 -3.534271
v 0.012053 -0.029103 0.071000
vn 1.179134 -2.846684 -2.748894
v 0.012055 -0.029102 0.000000
vn -1.179137 -2.846683 -2.748898
v -0.012055 -0.029102 0.000000
vn -2.178758 -2.178756 -2.748892
v -0.022274 -0.022274 0.000000
vn 2.178697 2.178815 -3.534290
v 0.022273 0.022274 0.071000
vn 1.179137 2.846683 -2.748898
v 0.012055 0.029102 0.000000
vn 2.846665 1.179169 -3.534297
v 0.029102 0.012054 0.071000
vn 2.178758 2.178756 -2.748892
v 0.022274 0.022274 0.000000
vn 3.081223 -0.000001 -3.534304
v 0.031500 0.000000 0.071000
vn 2.846682 1.179136 -2.748892
v 0.029102 0.012055 0.000000
vn 2.846666 -1.179168 -3.534298
v 0.029102 -0.012054 0.071000
vn 3.081228 -0.000001 -2.748892
v 0.031500 0.000000 0.000000
vn 2.178697 -2.178815 -3.534290
v 0.022273 -0.022274 0.071000
vn 2.178758 -2.178756 -2.748892
v 0.022274 -0.022274 0.000000
vn 2.846683 -1.179135 -2.748890
v 0.029102 -0.012055 0.000000
vn 1.570796 -1.570796 1.570796
v 0.047000 -0.031500 0.155600
# 40 vertices, 0 vertices normals

f 1//1 2//2 3//3
f 4//4 3//3 2//2
f 5//5 1//1 3//3
f 6//6 5//5 3//3
f 6//6 3//3 4//4
f 7//7 8//8 2//2
f 9//9 2//2 8//8
f 1//1 7//7 2//2
f 10//10 4//4 2//2
f 10//10 2//2 9//9
f 7//7 11//11 8//8
f 12//12 8//8 11//11
f 9//9 8//8 12//12
f 7//7 13//13 11//11
f 12//12 11//11 13//13
f 14//14 13//13 7//7
f 15//15 16//16 13//13
f 17//17 13//13 16//16
f 14//14 15//15 13//13
f 12//12 13//13 17//17
f 18//18 7//7 1//1
f 19//19 7//7 18//18
f 14//14 7//7 19//19
f 20//20 21//21 1//1
f 18//18 1//1 21//21
f 22//22 20//20 1//1
f 5//5 22//22 1//1
f 23//23 21//21 20//20
f 24//24 21//21 25//25
f 26//26 25//25 21//21
f 18//18 21//21 24//24
f 26//26 21//21 23//23
f 27//27 20//20 22//22
f 23//23 20//20 27//27
f 28//28 22//22 5//5
f 27//27 22//22 28//28
f 28//28 5//5 6//6
f 15//15 29//29 16//16
f 30//30 16//16 29//29
f 17//17 16//16 30//30
f 15//15 31//31 29//29
f 32//32 29//29 31//31
f 30//30 29//29 32//32
f 15//15 33//33 31//31
f 34//34 31//31 33//33
f 32//32 31//31 34//34
f 15//15 35//35 33//33
f 36//36 33//33 35//35
f 34//34 33//33 36//36
f 24//24 37//37 35//35
f 38//38 35//35 37//37
f 15//15 24//24 35//35
f 39//39 35//35 38//38
f 36//36 35//35 39//39
f 24//24 25//25 37//37
f 26//26 37//37 25//25
f 38//38 37//37 26//26
f 14//14 24//24 15//15
f 40//40 18//18 24//24
f 40//40 24//24 14//14
f 40//40 19//19 18//18
f 40//40 14//14 19//19
f 39//39 6//6 4//4
f 36//36 39//39 4//4
f 10//10 36//36 4//4
f 38//38 28//28 6//6
f 39//39 38//38 6//6
f 26//26 27//27 28//28
f 38//38 26//26 28//28
f 26//26 23//23 27//27
f 10//10 34//34 36//36
f 9//9 32//32 34//34
f 10//10 9//9 34//34
f 12//12 30//30 32//32
f 9//9 12//12 32//32
f 12//12 17//17 30//30
# 76 faces, 0 coords texture

# End of File
